<svg width="229" height="260" viewBox="0 0 229 260" fill="none" xmlns="http://www.w3.org/2000/svg">
<path d="M89.6288 10C101.996 19.8463 111.483 31.1438 114.629 47C114.648 48.9999 114.65 51.0001 114.629 53C122.661 53.0232 130.693 53.0409 138.725 53.0518C142.454 53.057 146.184 53.0641 149.913 53.0754C153.512 53.0863 157.11 53.0923 160.709 53.0949C162.082 53.0967 163.456 53.1003 164.829 53.1057C166.752 53.113 168.674 53.1134 170.597 53.1135C171.692 53.1157 172.786 53.118 173.914 53.1203C176.726 53.1199 176.726 53.1199 179.629 52C180.97 49.6992 182.133 47.4576 183.262 45.0547C183.973 43.5868 184.684 42.1191 185.395 40.6514C185.762 39.8853 186.129 39.1192 186.507 38.33C188.322 34.5592 190.192 30.8159 192.059 27.0703C192.798 25.5821 193.538 24.0938 194.277 22.6055C194.643 21.8699 195.009 21.1343 195.386 20.3765C196.143 18.8511 196.899 17.325 197.654 15.7983C198.764 13.5538 199.88 11.3118 200.996 9.07031C201.332 8.38712 201.669 7.70393 202.016 7.00003C203.358 4.31473 204.491 2.13795 206.629 0C211.989 0.268337 215.796 1.83659 220.441 4.4375C221.562 5.05496 222.682 5.67242 223.836 6.30859C226.629 8 226.629 8 228.629 10C228.347 15.2944 226.829 19.1389 224.355 23.7812C223.869 24.707 223.869 24.707 223.372 25.6515C222.343 27.6063 221.299 29.5533 220.254 31.5C219.219 33.448 218.186 35.3976 217.157 37.3485C216.22 39.12 215.276 40.8873 214.33 42.6543C212.599 46.0577 211.094 49.476 209.629 53C210.365 52.9652 211.101 52.9304 211.859 52.8945C212.835 52.8675 213.811 52.8404 214.816 52.8125C215.779 52.7777 216.742 52.7429 217.734 52.707C221.217 53.0596 222.877 53.8431 225.629 56C226.262 58.6391 226.262 58.6391 226.275 61.8804C226.3 63.7234 226.3 63.7234 226.325 65.6036C226.319 66.9683 226.312 68.3329 226.304 69.6975C226.314 71.1336 226.326 72.5697 226.341 74.0057C226.373 77.9164 226.375 81.8265 226.371 85.7373C226.371 89.8519 226.399 93.9663 226.424 98.0808C226.462 105.016 226.481 111.95 226.488 118.885C226.498 128.573 226.542 138.261 226.592 147.949C226.626 154.733 226.651 161.517 226.675 168.302C226.681 169.926 226.687 171.549 226.693 173.173C226.754 188.975 226.781 204.78 226.375 220.578C226.355 222.11 226.355 222.11 226.333 223.672C226.004 233.516 222.993 241.71 216.16 248.887C202.361 260.408 186.577 259.153 169.668 259.133C167.712 259.133 165.757 259.134 163.801 259.136C159.708 259.137 155.614 259.135 151.521 259.13C146.333 259.125 141.145 259.128 135.957 259.134C131.916 259.138 127.875 259.136 123.833 259.134C121.924 259.133 120.015 259.134 118.105 259.136C108.277 259.146 98.4688 259.032 88.6498 258.585C87.825 258.551 87.0002 258.516 86.1504 258.481C75.9709 257.959 69.2889 254.709 61.8983 247.621C52.6806 236.975 52.5034 225.432 52.4235 212.042C52.4136 210.997 52.4037 209.952 52.3935 208.876C52.3622 205.456 52.3372 202.037 52.3124 198.617C52.2918 196.233 52.2708 193.848 52.2494 191.463C52.1945 185.213 52.1449 178.963 52.0966 172.712C52.0462 166.324 51.9906 159.935 51.9355 153.547C51.8282 141.031 51.7267 128.516 51.6288 116C50.6236 115.746 49.6184 115.492 48.5827 115.23C47.2373 114.883 45.892 114.535 44.5468 114.188C43.8874 114.022 43.228 113.856 42.5486 113.686C27.7261 109.822 16.1289 100.63 8.10269 87.7244C0.357331 74.3702 -1.7021 59.5668 1.35538 44.3945C2.28167 41.4839 3.35018 38.7725 4.62882 36C5.03745 35.0745 5.44608 34.1489 5.8671 33.1953C9.91144 24.5557 9.91144 24.5557 13.6288 22C16.3163 21.6875 16.3163 21.6875 18.6288 22C19.6288 23 19.6288 23 20.0038 25.5625C19.5603 29.6284 18.1785 31.5351 15.9374 34.8555C9.65689 45.148 9.20041 58.6564 11.8163 70.125C15.3306 82.465 21.6994 91.9136 32.6249 98.9219C39.0234 102.283 45.5899 104.42 52.6288 106C52.6288 104.02 52.6288 102.04 52.6288 100C51.7026 99.8704 51.7026 99.8704 50.7577 99.7383C39.5498 97.8788 31.2513 92.399 23.6288 84C16.4458 73.3217 14.1629 62.6885 15.6288 50C16.7731 45.6486 18.4419 41.9214 20.6288 38C21.2804 36.7857 21.2804 36.7857 21.9452 35.5469C27.7119 25.8865 36.8774 19.8103 47.4413 16.418C60.4551 13.9314 72.1874 16.6676 83.0194 23.9961C92.6749 31.4111 97.9329 40.9502 99.6288 53C101.279 52.67 102.929 52.34 104.629 52C102.607 37.8194 95.8142 27.6641 84.7538 18.625C74.323 11.2461 61.9824 10.2883 49.6288 11C41.9955 12.3879 35.0511 15.7185 28.6288 20C25.5038 20.1875 25.5038 20.1875 22.6288 20C21.6288 19 21.6288 19 21.1288 16.8125C21.805 13.0089 23.4055 11.8074 26.3905 9.48047C45.44 -3.11947 70.8684 -3.2825 89.6288 10ZM210.629 12C202.169 28.1122 202.169 28.1122 193.879 44.3125C193.544 44.9686 193.21 45.6248 192.865 46.3008C191.171 49.493 191.171 49.493 190.629 53C193.269 53 195.909 53 198.629 53C201.652 47.3454 204.652 41.6793 207.629 36C208.023 35.248 208.418 34.496 208.824 33.7212C209.936 31.59 211.034 29.4526 212.129 27.3125C212.635 26.3438 212.635 26.3438 213.152 25.3555C215.057 21.5939 216.381 18.2321 216.629 14C215.969 13.34 215.309 12.68 214.629 12C213.309 12 211.989 12 210.629 12ZM40.6288 30C40.2988 30.99 39.9688 31.98 39.6288 33C40.9211 35.005 40.9211 35.005 42.8163 36.9375C43.787 37.9874 43.787 37.9874 44.7773 39.0586C45.3883 39.6993 45.9993 40.3399 46.6288 41C47.3919 41.825 48.1551 42.65 48.9413 43.5C50.5017 45.2215 50.5017 45.2215 52.6288 45C54.869 40.5196 53.9769 34.6223 52.6288 29.9375C52.2988 28.9681 51.9688 27.9987 51.6288 27C47.1897 26.6083 44.4086 27.6806 40.6288 30ZM62.6288 28C62.3655 30.098 62.168 32.2044 62.0038 34.3125C61.9084 35.4636 61.813 36.6148 61.7148 37.8008C61.6417 40.5205 61.7841 42.4468 62.6288 45C68.5741 42.3576 72.8626 38.2062 76.6288 33C75.9079 29.7785 75.9079 29.7785 72.9413 28.3125C69.9145 27.1132 65.3192 25.3096 62.6288 28ZM29.0663 41.5C27.1065 44.9083 26.4609 48.1595 25.6288 52C28.9017 53.9529 31.3422 54.2447 35.1288 54.1875C36.0673 54.1811 37.0057 54.1746 37.9726 54.168C40.335 54.0186 42.366 53.6671 44.6288 53C43.0989 49.3944 40.9418 47.0141 38.1913 44.25C37.4089 43.4508 36.6264 42.6516 35.8202 41.8281C33.1915 39.6352 31.687 38.9841 29.0663 41.5ZM79.1483 42.082C78.255 42.9831 77.3617 43.8841 76.4413 44.8125C75.5403 45.7058 74.6392 46.5991 73.7108 47.5195C71.3074 49.8432 71.3074 49.8432 71.6288 53C76.7983 55.5848 84.1153 53.9385 89.6288 53C88.5536 45.8344 88.5536 45.8344 84.6288 40C81.472 39.6785 81.472 39.6785 79.1483 42.082ZM26.6288 63C25.4072 66.6647 26.0005 67.6324 27.4413 71.125C27.7984 72.0145 28.1555 72.9039 28.5233 73.8203C29.4331 76.1502 29.4331 76.1502 31.6288 77C33.0714 75.9234 34.5076 74.8384 35.9413 73.75C36.7418 73.1467 37.5423 72.5434 38.3671 71.9219C40.5518 70.0654 42.1795 68.4732 43.6288 66C43.2988 65.01 42.9688 64.02 42.6288 63C37.3488 63 32.0688 63 26.6288 63ZM184.105 64.582C176.961 74.6538 176.961 74.6538 173.629 86C176.691 86 178.783 85.9769 181.629 85C183.889 82.6437 185.175 79.9018 186.629 77C187.095 76.2227 187.562 75.4454 188.043 74.6445C190.527 70.5025 191.931 67.9351 191.629 63C188.441 62.317 186.46 62.137 184.105 64.582ZM46.6913 75.3125C46.0017 75.9274 45.312 76.5423 44.6015 77.1758C43.9505 77.7778 43.2995 78.3798 42.6288 79C42.0294 79.4886 41.43 79.9771 40.8124 80.4805C39.4074 81.9485 39.4074 81.9485 39.703 84.0469C40.8882 86.5473 41.9564 87.0882 44.4413 88.25C45.4719 88.7527 45.4719 88.7527 46.5233 89.2656C48.8866 90.2196 48.8866 90.2196 52.6288 90C52.6288 84.06 52.6288 78.12 52.6288 72C49.7438 72 48.8088 73.408 46.6913 75.3125ZM125.629 86C125.074 86.5274 124.519 87.0548 123.948 87.5981C120.796 90.6128 117.677 93.6615 114.605 96.7578C114.08 97.2852 113.555 97.8126 113.014 98.356C110.099 101.815 109.379 104.509 109.629 109C116.426 108.464 122.376 107.079 128.816 104.875C129.726 104.569 130.636 104.263 131.573 103.947C139.296 101.271 146.478 97.954 153.629 94C151.067 88.1395 146.224 82.5788 140.316 79.9844C133.723 78.7481 130.219 81.6055 125.629 86ZM62.6288 63C62.5123 92.664 62.5123 92.664 62.4335 122.328C62.4098 134.425 62.3819 146.522 62.3271 158.619C62.2872 167.429 62.2614 176.239 62.2525 185.05C62.2473 189.714 62.235 194.377 62.2059 199.041C62.1787 203.434 62.1704 207.827 62.1764 212.22C62.1753 213.829 62.1674 215.438 62.152 217.047C62.0604 227.132 62.3557 235.173 69.7538 242.812C76.731 249.148 85.7088 249.443 94.7189 249.372C96.3087 249.378 96.3087 249.378 97.9307 249.383C101.404 249.391 104.878 249.378 108.351 249.363C110.782 249.363 113.212 249.363 115.643 249.365C120.724 249.365 125.805 249.354 130.886 249.336C137.384 249.313 143.883 249.313 150.381 249.32C155.396 249.323 160.41 249.316 165.424 249.307C167.82 249.303 170.216 249.302 172.611 249.303C175.964 249.304 179.316 249.291 182.668 249.275C184.139 249.278 184.139 249.278 185.639 249.282C194.077 249.217 201.966 248.626 208.629 243C217.345 233.594 216.922 223.427 216.888 211.252C216.89 209.658 216.894 208.064 216.898 206.471C216.907 202.161 216.904 197.852 216.897 193.542C216.892 189.029 216.897 184.517 216.9 180.004C216.904 172.433 216.899 164.863 216.89 157.292C216.879 148.533 216.882 139.774 216.893 131.015C216.902 123.492 216.904 115.969 216.898 108.446C216.895 103.954 216.895 99.4612 216.901 94.9687C216.907 90.7514 216.903 86.5342 216.892 82.3169C216.889 80.7665 216.89 79.216 216.894 77.6656C216.9 75.5558 216.893 73.4465 216.883 71.3368C216.882 70.1544 216.881 68.972 216.88 67.7538C216.912 64.8564 216.912 64.8564 214.629 63C211.155 62.1816 208.094 62.1311 204.629 63C201.849 65.5978 200.305 68.6156 198.629 72C198.216 72.7502 197.804 73.5005 197.379 74.2734C195.748 77.3205 194.629 79.5013 194.629 83C195.628 83.2771 196.627 83.5543 197.656 83.8398C198.96 84.2056 200.263 84.5715 201.566 84.9375C202.555 85.2111 202.555 85.2111 203.564 85.4902C208.516 86.8867 208.516 86.8867 209.629 88C209.9 90.7364 210.105 93.4436 210.254 96.1875C210.298 96.9931 210.342 97.7987 210.388 98.6287C210.723 105.79 210.619 112.884 209.629 120C208.629 121 208.629 121 206.129 121.125C203.629 121 203.629 121 202.629 120C202.508 118.255 202.449 116.506 202.418 114.758C202.39 113.692 202.361 112.626 202.332 111.527C202.28 109.267 202.236 107.007 202.199 104.746C202.153 103.143 202.153 103.143 202.105 101.508C202.086 100.524 202.066 99.541 202.045 98.5278C201.821 95.9714 201.821 95.9714 200.285 94.1807C196.152 91.2339 189.439 92.6227 184.629 93C180.831 93.6614 177.154 94.4137 173.629 96C172.969 96.99 172.309 97.98 171.629 99C171.959 99.99 172.289 100.98 172.629 102C172.902 104.418 172.902 104.418 173.004 107.188C173.053 108.089 173.102 108.99 173.152 109.918C171.665 118.675 164.24 124.847 158.191 130.812C157.358 131.657 156.525 132.502 155.666 133.373C146.559 142.437 146.559 142.437 139.848 143.398C138.95 143.391 138.053 143.383 137.129 143.375C136.232 143.383 135.334 143.39 134.41 143.398C128.652 142.574 125.028 139.761 121.371 135.402C111.409 123.457 111.409 123.457 97.4731 117.934C94.3166 117.786 91.2083 117.75 88.0556 117.98C84.5286 118.009 81.1262 117.456 77.6288 117C77.512 131.386 77.4242 145.772 77.3698 160.159C77.3437 166.839 77.3082 173.519 77.2516 180.198C77.1973 186.643 77.1674 193.088 77.1544 199.533C77.1452 201.994 77.1271 204.454 77.1002 206.915C77.0639 210.358 77.0589 213.8 77.0612 217.243C77.0432 218.263 77.0252 219.283 77.0067 220.334C77.0401 224.905 77.1387 227.284 79.7708 231.13C83.1224 233.323 84.941 233.64 88.924 233.675C90.8147 233.71 90.8147 233.71 92.7437 233.744C94.1234 233.744 95.503 233.744 96.8827 233.742C98.3265 233.758 99.7703 233.777 101.214 233.797C105.076 233.844 108.937 233.86 112.799 233.868C115.985 233.877 119.171 233.903 122.357 233.929C131.743 234.003 141.129 234.019 150.515 234.003C152.521 234 154.528 233.998 156.535 233.997C163.012 233.988 169.488 233.951 175.964 233.854C177.815 233.826 179.666 233.804 181.517 233.788C184.037 233.761 186.555 233.708 189.074 233.645C189.794 233.64 190.513 233.636 191.255 233.631C194.587 233.515 196.365 233.203 199.038 231.147C202.295 226.75 201.787 222.112 201.802 216.879C201.812 215.478 201.812 215.478 201.823 214.05C201.837 212.022 201.849 209.993 201.859 207.965C201.875 204.759 201.898 201.553 201.924 198.348C201.994 189.232 202.055 180.117 202.106 171.002C202.137 165.429 202.179 159.855 202.226 154.282C202.242 152.154 202.254 150.027 202.263 147.899C202.275 144.93 202.299 141.961 202.326 138.992C202.326 138.106 202.327 137.22 202.328 136.308C202.401 130.228 202.401 130.228 204.629 128C207.254 127.875 207.254 127.875 209.629 128C210.507 139.682 210.792 151.289 210.797 163C210.8 164.774 210.803 166.548 210.807 168.322C210.813 172.006 210.815 175.69 210.814 179.375C210.814 184.079 210.828 188.784 210.845 193.489C210.856 197.138 210.858 200.788 210.858 204.437C210.859 206.172 210.863 207.907 210.871 209.642C210.881 212.065 210.878 214.487 210.872 216.91C210.877 217.614 210.883 218.317 210.889 219.042C210.849 225.331 210.199 232.042 205.816 236.875C205.335 237.429 204.855 237.984 204.359 238.555C200.847 241.488 197.164 242.25 192.678 242.267C191.706 242.276 190.735 242.284 189.734 242.293C188.68 242.292 187.626 242.291 186.54 242.291C185.42 242.297 184.301 242.304 183.148 242.311C179.447 242.33 175.747 242.334 172.047 242.336C169.472 242.342 166.898 242.349 164.323 242.356C158.926 242.368 153.528 242.372 148.131 242.371C141.905 242.369 135.68 242.39 129.455 242.422C123.452 242.451 117.449 242.459 111.446 242.457C108.899 242.46 106.352 242.469 103.805 242.484C100.238 242.504 96.6726 242.498 93.1061 242.486C92.058 242.497 91.01 242.508 89.9301 242.52C83.7849 242.467 78.6401 241.814 73.6288 238C70.0768 233.47 68.5092 228.777 68.4816 223.082C68.4745 222.067 68.4673 221.052 68.46 220.007C68.4573 218.894 68.4546 217.781 68.4518 216.635C68.4452 215.462 68.4387 214.289 68.4319 213.081C68.4121 209.19 68.4005 205.298 68.3905 201.406C68.3865 200.063 68.3824 198.72 68.3782 197.377C68.3591 191.063 68.3449 184.748 68.3366 178.433C68.3268 171.163 68.3006 163.894 68.2601 156.625C68.2298 150.995 68.2151 145.365 68.2118 139.735C68.2095 136.378 68.1986 133.022 68.1753 129.665C68.1509 125.91 68.1519 122.156 68.1588 118.4C68.146 117.304 68.1332 116.207 68.12 115.078C68.1716 107.371 68.9547 98.7738 74.584 92.9918C80.0729 88.5479 85.5912 86.6952 92.664 87.0078C107.204 87.9047 107.204 87.9047 119.707 81.791C121.214 80.1681 122.682 78.5235 124.125 76.8438C127.514 72.9947 130.521 71.3295 135.629 71C143.703 71.1519 148.106 74.4545 153.629 80C154.886 81.1814 156.156 82.3492 157.441 83.5C157.984 84.0053 158.527 84.5106 159.086 85.0312C159.595 85.3509 160.104 85.6706 160.629 86C165.228 84.4669 166.209 80.8912 168.379 76.75C168.803 75.9856 169.227 75.2212 169.664 74.4336C170.06 73.6872 170.455 72.9409 170.863 72.1719C171.226 71.4922 171.59 70.8126 171.964 70.1123C172.956 67.5513 172.956 67.5513 171.629 63C135.659 63 99.6888 63 62.6288 63ZM81.6288 98C78.9904 100.829 78.9904 100.829 77.6288 104C78.2724 107.037 78.2724 107.037 80.2733 107.949C86.7168 110.143 92.8448 110.573 99.6288 110C101.512 108.117 101.363 105.032 101.754 102.5C101.942 101.314 102.13 100.128 102.324 98.9062C102.425 97.9472 102.525 96.9881 102.629 96C100.869 94.24 98.4539 94.7859 96.0663 94.75C90.4598 94.8167 86.5841 95.3454 81.6288 98ZM152.824 104.266C151.682 104.744 150.54 105.222 149.363 105.715C146.996 106.722 144.628 107.73 142.262 108.738C134.152 112.132 126.119 114.774 117.629 117C118.529 121.854 121.316 124.275 124.691 127.688C125.514 128.578 125.514 128.578 126.353 129.486C129.273 132.453 131.582 134.358 135.75 135.082C143.866 134.91 148.911 128.186 154.379 122.812C155.254 121.987 156.129 121.161 157.031 120.311C162.348 115.258 162.348 115.258 164.832 108.574C164.926 104.896 164.926 104.896 162.629 102C158.502 102 156.561 102.672 152.824 104.266Z" fill="#0A0A0A"/>
<path d="M142.586 159.168C144.092 160.074 144.092 160.074 145.629 161C147.094 161.916 147.094 161.916 148.59 162.851C152.598 164.366 154.446 163.6 158.441 162.187C167.833 159.231 173.304 158.906 182.269 163.125C188.82 168.33 191.138 176.441 193.441 184.187C193.744 185.204 194.046 186.22 194.358 187.267C196.879 196.154 199.268 204.999 194.504 213.562C189.135 221.44 179.206 223.366 170.629 226C169.627 226.325 168.626 226.649 167.594 226.984C159.889 229.334 151.881 230.757 144.254 227.437C140.128 225.06 138.006 222.086 135.629 218C135.629 217.01 135.629 216.02 135.629 215C134.988 215.216 134.347 215.433 133.687 215.656C122.841 219.148 116.922 217.713 107.027 212.675C104.311 211.236 101.625 209.75 98.9412 208.25C98.0305 207.762 97.1198 207.275 96.1815 206.773C89.3503 202.943 84.1659 198.611 81.6287 191C80.1739 181.463 85.1003 174.034 89.6287 166C90.024 165.298 90.4193 164.597 90.8265 163.874C91.995 161.823 93.1804 159.783 94.3787 157.75C94.7428 157.13 95.1069 156.511 95.482 155.872C100.298 147.925 100.298 147.925 104.89 146.101C119.774 143.177 130.447 151.523 142.586 159.168ZM103.629 160C101.305 163.343 99.2981 166.821 97.3162 170.375C96.7793 171.295 96.2424 172.215 95.6893 173.164C92.9286 178.038 90.5518 182.254 90.6287 188C92.4558 194.108 96.3986 196.179 101.691 199.062C102.455 199.491 103.218 199.92 104.005 200.362C105.519 201.208 107.038 202.045 108.561 202.874C110.306 203.824 112.036 204.803 113.762 205.789C117.43 207.797 119.778 209 124.004 209C127.735 207.615 127.735 207.615 130.629 205C131.07 201.175 130.741 198.371 129.629 194.687C128.063 188.912 127.746 183.5 129.754 177.812C132.109 174.28 134.767 171.13 137.629 168C133.585 164.57 129.335 161.879 124.754 159.25C123.731 158.633 123.731 158.633 122.687 158.004C115.472 153.867 109.403 153.162 103.629 160ZM154.441 172.687C153.266 173.04 152.091 173.392 150.881 173.756C143.394 175.965 143.394 175.965 137.629 181C135.463 188.556 137.97 194.964 140.316 202.25C140.669 203.42 141.021 204.591 141.385 205.797C143.623 213.237 143.623 213.237 148.629 219C154.492 221.119 160.23 218.892 166.004 217.312C167.007 217.055 168.01 216.798 169.043 216.533C179.094 214.229 179.094 214.229 186.852 208.156C189.469 200.891 185.612 191.608 183.379 184.625C183.091 183.654 182.804 182.683 182.508 181.683C181.222 177.614 180.178 174.622 177.332 171.398C169.24 167.212 162.71 170.044 154.441 172.687Z" fill="#0B0B0B"/>
<path d="M188.629 121C192.666 122.869 194.268 124.425 196.629 128.188C197.905 133.052 197.51 136.37 195.629 141C193.56 144.009 192.081 145.532 188.582 146.66C183.553 147.553 179.718 146.932 175.297 144.364C172.379 141.979 171.541 139.588 170.629 136C170.527 130.276 172.454 127.44 176.156 123.383C179.707 120.049 184.031 120.458 188.629 121ZM183.629 130C182.639 130.66 181.649 131.32 180.629 132C180.959 133.65 181.289 135.3 181.629 137C183.279 137 184.929 137 186.629 137C186.959 135.35 187.289 133.7 187.629 132C186.309 131.34 184.989 130.68 183.629 130Z" fill="#0B0C0C"/>
<path d="M99.6287 125C102.703 126.702 105.035 128.812 106.629 132C107.174 138.434 106.313 141.689 102.629 147C98.8506 148.889 94.7343 148.611 90.6287 148C87.3977 146.609 85.4413 145.024 83.6287 142C82.7641 138.159 82.7751 134.841 83.6287 131C88.0781 125.145 92.5327 123.904 99.6287 125ZM93.6287 134C93.2987 134.99 92.9687 135.98 92.6287 137C93.9487 137.33 95.2687 137.66 96.6287 138C96.2987 136.68 95.9687 135.36 95.6287 134C94.9687 134 94.3087 134 93.6287 134Z" fill="#0C0C0D"/>
<path d="M53.6288 74C53.9588 74 54.2888 74 54.6288 74C54.6288 79.94 54.6288 85.88 54.6288 92C52.9788 91.67 51.3288 91.34 49.6288 91C50.6188 90.34 51.6088 89.68 52.6288 89C53.0129 86.3904 53.2317 83.9942 53.3163 81.375C53.3504 80.6686 53.3846 79.9622 53.4198 79.2344C53.5023 77.4901 53.5672 75.7451 53.6288 74Z" fill="#151517"/>
<path d="M179.629 122C178.344 124.867 177.057 126.976 174.629 129C173.969 129 173.309 129 172.629 129C175.767 122 175.767 122 179.629 122Z" fill="#101011"/>
</svg>
